<mxfile host="app.diagrams.net" agent="Mozilla/5.0 (Windows NT 10.0; Win64; x64) AppleWebKit/537.36 (KHTML, like Gecko) Chrome/134.0.0.0 Safari/537.36 Edg/134.0.0.0" version="26.1.1">
  <diagram name="Page-1" id="4xfQ2MLht4sYgVVxXMw-">
    <mxGraphModel dx="903" dy="499" grid="1" gridSize="10" guides="1" tooltips="1" connect="1" arrows="1" fold="1" page="1" pageScale="1" pageWidth="827" pageHeight="1169" math="0" shadow="0">
      <root>
        <mxCell id="0" />
        <mxCell id="1" parent="0" />
        <mxCell id="aVhCBYOH4ArjlUJ8OEMJ-1" value="Horizontal Flow Layout" style="swimlane;html=1;startSize=20;horizontal=0;childLayout=flowLayout;flowOrientation=west;resizable=0;interRankCellSpacing=50;containerType=tree;fontSize=12;" vertex="1" parent="1">
          <mxGeometry x="150" y="130" width="460" height="150" as="geometry" />
        </mxCell>
        <mxCell id="aVhCBYOH4ArjlUJ8OEMJ-2" value="ESP32" style="whiteSpace=wrap;html=1;" vertex="1" parent="aVhCBYOH4ArjlUJ8OEMJ-1">
          <mxGeometry x="40" y="20" width="100" height="40" as="geometry" />
        </mxCell>
        <mxCell id="aVhCBYOH4ArjlUJ8OEMJ-5" value="Server" style="whiteSpace=wrap;html=1;" vertex="1" parent="aVhCBYOH4ArjlUJ8OEMJ-1">
          <mxGeometry x="190" y="55" width="100" height="40" as="geometry" />
        </mxCell>
        <mxCell id="aVhCBYOH4ArjlUJ8OEMJ-6" value="" style="html=1;rounded=1;curved=0;sourcePerimeterSpacing=0;targetPerimeterSpacing=0;startSize=6;endSize=6;noEdgeStyle=1;orthogonal=1;" edge="1" parent="aVhCBYOH4ArjlUJ8OEMJ-1" source="aVhCBYOH4ArjlUJ8OEMJ-2" target="aVhCBYOH4ArjlUJ8OEMJ-5">
          <mxGeometry relative="1" as="geometry">
            <Array as="points">
              <mxPoint x="152" y="40" />
              <mxPoint x="178" y="67.5" />
            </Array>
          </mxGeometry>
        </mxCell>
        <mxCell id="aVhCBYOH4ArjlUJ8OEMJ-7" value="FrontEnd" style="whiteSpace=wrap;html=1;" vertex="1" parent="aVhCBYOH4ArjlUJ8OEMJ-1">
          <mxGeometry x="340" y="55" width="100" height="40" as="geometry" />
        </mxCell>
        <mxCell id="aVhCBYOH4ArjlUJ8OEMJ-9" value="" style="html=1;rounded=1;curved=0;sourcePerimeterSpacing=0;targetPerimeterSpacing=0;startSize=6;endSize=6;noEdgeStyle=1;orthogonal=1;" edge="1" parent="aVhCBYOH4ArjlUJ8OEMJ-1" source="aVhCBYOH4ArjlUJ8OEMJ-5" target="aVhCBYOH4ArjlUJ8OEMJ-7">
          <mxGeometry relative="1" as="geometry">
            <Array as="points">
              <mxPoint x="302" y="75" />
              <mxPoint x="328" y="75" />
            </Array>
          </mxGeometry>
        </mxCell>
        <mxCell id="aVhCBYOH4ArjlUJ8OEMJ-10" value="" style="html=1;rounded=1;curved=0;sourcePerimeterSpacing=0;targetPerimeterSpacing=0;startSize=6;endSize=6;noEdgeStyle=1;orthogonal=1;entryX=0;entryY=0.5;entryDx=0;entryDy=0;" edge="1" target="aVhCBYOH4ArjlUJ8OEMJ-5" source="aVhCBYOH4ArjlUJ8OEMJ-11" parent="aVhCBYOH4ArjlUJ8OEMJ-1">
          <mxGeometry relative="1" as="geometry">
            <mxPoint x="690" y="398" as="sourcePoint" />
            <Array as="points">
              <mxPoint x="152" y="110" />
              <mxPoint x="178" y="82.5" />
            </Array>
          </mxGeometry>
        </mxCell>
        <mxCell id="aVhCBYOH4ArjlUJ8OEMJ-11" value="ESP32" style="whiteSpace=wrap;html=1;" vertex="1" parent="aVhCBYOH4ArjlUJ8OEMJ-1">
          <mxGeometry x="40" y="90" width="100" height="40" as="geometry" />
        </mxCell>
      </root>
    </mxGraphModel>
  </diagram>
</mxfile>
